<?xml version="1.0" encoding="utf-8"?>
<!-- Generator: Adobe Illustrator 16.0.0, SVG Export Plug-In . SVG Version: 6.00 Build 0)  -->
<!DOCTYPE svg PUBLIC "-//W3C//DTD SVG 1.1//EN" "http://www.w3.org/Graphics/SVG/1.1/DTD/svg11.dtd">
<svg version="1.1" id="Ebene_1" xmlns="http://www.w3.org/2000/svg" xmlns:xlink="http://www.w3.org/1999/xlink" x="0px" y="0px"
	 width="24px" height="24px" viewBox="0 0 24 24" enable-background="new 0 0 24 24" xml:space="preserve">
<path fill="#4BA4E5" d="M22,24l-5.25-5l0.63,2H4.5c-0.663,0-1.299-0.264-1.768-0.732C2.263,19.799,2,19.163,2,18.5v-15
	c0-0.663,0.263-1.299,0.732-1.768C3.201,1.263,3.837,1,4.5,1h15c0.663,0,1.299,0.263,1.768,0.732C21.736,2.201,22,2.837,22,3.5V24z
	 M12,6.8c-2.68,0-4.56,1.15-4.56,1.15c1.03-0.92,2.83-1.45,2.83-1.45L10.1,6.33c-1.69,0.03-3.22,1.2-3.22,1.2
	c-1.72,3.59-1.61,6.691-1.61,6.691c1.4,1.809,3.48,1.68,3.48,1.68L9.46,15c-1.25-0.27-2.04-1.38-2.04-1.38S9.3,14.9,12,14.9
	s4.58-1.28,4.58-1.28s-0.79,1.11-2.04,1.38l0.71,0.9c0,0,2.08,0.129,3.48-1.68c0,0,0.109-3.101-1.61-6.691c0,0-1.53-1.17-3.22-1.2
	L13.73,6.5c0,0,1.799,0.53,2.83,1.45C16.561,7.95,14.68,6.8,12,6.8z M9.93,10.59c0.65,0,1.18,0.57,1.17,1.27
	c0,0.69-0.52,1.27-1.17,1.27c-0.64,0-1.16-0.58-1.16-1.27C8.77,11.16,9.28,10.59,9.93,10.59z M14.1,10.59
	c0.65,0,1.17,0.57,1.17,1.27c0,0.69-0.52,1.27-1.17,1.27c-0.64,0-1.16-0.58-1.16-1.27C12.939,11.16,13.45,10.59,14.1,10.59z"/>
</svg>
