<?xml version="1.0" encoding="utf-8"?>
<!-- Generator: Adobe Illustrator 16.0.0, SVG Export Plug-In . SVG Version: 6.00 Build 0)  -->
<!DOCTYPE svg PUBLIC "-//W3C//DTD SVG 1.1//EN" "http://www.w3.org/Graphics/SVG/1.1/DTD/svg11.dtd">
<svg version="1.1" id="Ebene_1" xmlns="http://www.w3.org/2000/svg" xmlns:xlink="http://www.w3.org/1999/xlink" x="0px" y="0px"
	 width="25px" height="25px" viewBox="0 0 25 25" enable-background="new 0 0 25 25" xml:space="preserve">
<path fill="#4BA4E5" d="M22.496,6.301c-0.77,0.35-1.6,0.58-2.459,0.69c0.879-0.53,1.56-1.37,1.879-2.38
	c-0.829,0.5-1.75,0.85-2.719,1.05c-0.791-0.86-1.9-1.36-3.16-1.36c-2.351,0-4.271,1.92-4.271,4.29c0,0.34,0.04,0.67,0.11,0.98
	c-3.56-0.18-6.73-1.89-8.84-4.48c-0.37,0.63-0.58,1.37-0.58,2.15c0,1.49,0.75,2.81,1.91,3.56c-0.71,0-1.37-0.2-1.95-0.5
	c0,0,0,0,0,0.03c0,2.08,1.48,3.82,3.44,4.21c-0.36,0.1-0.74,0.15-1.13,0.15c-0.27,0-0.54-0.031-0.8-0.08
	c0.54,1.689,2.11,2.949,4,2.979c-1.46,1.16-3.31,1.84-5.33,1.84c-0.34,0-0.68-0.021-1.02-0.06c1.9,1.22,4.16,1.93,6.58,1.93
	c7.88,0,12.21-6.54,12.21-12.21c0-0.19,0-0.37-0.01-0.56C21.197,7.931,21.916,7.171,22.496,6.301z"/>
</svg>
